<?xml version="1.0" encoding="iso-8859-1"?>
<!-- Generator: Adobe Illustrator 19.0.0, SVG Export Plug-In . SVG Version: 6.00 Build 0)  -->
<svg version="1.1" id="Capa_1" xmlns="http://www.w3.org/2000/svg" xmlns:xlink="http://www.w3.org/1999/xlink" x="0px" y="0px"
	 viewBox="0 0 480 480" style="enable-background:new 0 0 480 480;" xml:space="preserve">
<linearGradient id="SVGID_1_" gradientUnits="userSpaceOnUse" x1="-26.875" y1="559.505" x2="-26.875" y2="622.41" gradientTransform="matrix(8 0 0 -8 455 4941)">
	<stop  offset="0" style="stop-color:#00F06D"/>
	<stop  offset="1" style="stop-color:#00F0F7"/>
</linearGradient>
<path style="fill:url(#SVGID_1_);" d="M240,480C107.452,480,0,372.548,0,240S107.452,0,240,0s240,107.452,240,240
	C479.85,372.486,372.486,479.85,240,480z M240,16C116.288,16,16,116.288,16,240s100.288,224,224,224s224-100.288,224-224
	C463.859,116.347,363.653,16.141,240,16z"/>
<linearGradient id="SVGID_2_" gradientUnits="userSpaceOnUse" x1="-26.8922" y1="559.505" x2="-26.8922" y2="622.41" gradientTransform="matrix(8 0 0 -8 455 4941)">
	<stop  offset="0" style="stop-color:#00F06D"/>
	<stop  offset="1" style="stop-color:#00F0F7"/>
</linearGradient>
<path style="fill:url(#SVGID_2_);" d="M205.824,309.824c-2.122,0-4.156-0.844-5.656-2.344l-67.88-67.88
	c-3.069-3.178-2.981-8.243,0.197-11.312c3.1-2.994,8.015-2.994,11.115,0l62.224,62.224L335.928,160.4
	c3.069-3.178,8.134-3.266,11.312-0.196c3.178,3.069,3.266,8.134,0.196,11.312c-0.064,0.067-0.13,0.132-0.196,0.196L211.48,307.48
	C209.98,308.98,207.946,309.824,205.824,309.824L205.824,309.824z"/>
<g>
</g>
<g>
</g>
<g>
</g>
<g>
</g>
<g>
</g>
<g>
</g>
<g>
</g>
<g>
</g>
<g>
</g>
<g>
</g>
<g>
</g>
<g>
</g>
<g>
</g>
<g>
</g>
<g>
</g>
</svg>
