<?xml version="1.0" encoding="iso-8859-1"?>
<!-- Generator: Adobe Illustrator 19.0.0, SVG Export Plug-In . SVG Version: 6.00 Build 0)  -->
<svg version="1.1" id="Capa_1" xmlns="http://www.w3.org/2000/svg" xmlns:xlink="http://www.w3.org/1999/xlink" x="0px" y="0px"
	 viewBox="0 0 443.769 443.769" style="enable-background:new 0 0 443.769 443.769;" xml:space="preserve">
<linearGradient id="SVGID_1_" gradientUnits="userSpaceOnUse" x1="-55.4903" y1="545.5947" x2="-55.4903" y2="592.0176" gradientTransform="matrix(8 0 0 -8 665.8074 4777.8535)">
	<stop  offset="0" style="stop-color:#006DF0"/>
	<stop  offset="1" style="stop-color:#00E7F0"/>
</linearGradient>
<path style="fill:url(#SVGID_1_);" d="M422.685,83.281l-22.624-22.624c-28.118-28.118-73.705-28.118-101.823-0.001
	c0,0,0,0-0.001,0.001l-74.752,74.816c-28.461-17.874-65.496-13.712-89.28,10.032L21.085,258.673
	c-28.113,28.117-28.113,73.699,0,101.816l22.624,22.624c28.118,28.118,73.705,28.118,101.823,0.001c0,0,0,0,0.001-0.001l74.8-74.84
	c28.442,17.885,65.472,13.722,89.232-10.032l113.12-113.168c28.113-28.117,28.113-73.699,0-101.816V83.281z M134.205,371.777
	c-21.868,21.87-57.325,21.872-79.196,0.004c-0.001-0.001-0.003-0.003-0.004-0.004l-22.624-22.624
	c-21.87-21.868-21.872-57.326-0.004-79.196c0.001-0.001,0.003-0.003,0.004-0.004l113.136-113.136
	c19.943-19.959,51.619-21.964,73.92-4.68c1.85,1.456,3.613,3.018,5.28,4.68l22.624,22.656c21.828,21.888,21.828,57.312,0,79.2
	l-5.656,5.656l-11.312-11.32l5.656-5.656c15.621-15.621,15.621-40.947,0-56.568l-22.624-22.656l-8-6.136l-5.736-2.792
	c-14.793-5.832-31.637-2.324-42.872,8.928L43.693,281.273c-15.594,15.632-15.594,40.936,0,56.568l22.632,22.624
	c1.899,1.901,3.984,3.605,6.224,5.088c0.376,0.248,0.8,0.392,1.176,0.624c1.849,1.177,3.791,2.199,5.808,3.056
	c0.096,0,0.2,0.048,0.296,0.088c9.495,3.829,20.105,3.829,29.6,0c0.08,0,0.168-0.04,0.24-0.072c2.031-0.861,3.987-1.888,5.848-3.072
	c0.376-0.224,0.8-0.368,1.144-0.608c2.24-1.483,4.325-3.187,6.224-5.088l73.544-73.536l11.312,11.312L134.205,371.777z
	 M366.133,94.593l22.624,22.624c9.373,9.372,9.375,24.568,0.003,33.941c-0.001,0.001-0.002,0.002-0.003,0.003L275.629,264.273
	c-1.107,1.078-2.312,2.05-3.6,2.904c-0.496,0.336-1.016,0.616-1.536,0.912c-0.758,0.439-1.541,0.834-2.344,1.184
	c-0.688,0.296-1.368,0.576-2.072,0.8s-1.352,0.376-2.032,0.536s-1.552,0.384-2.344,0.488c-1.35,0.177-2.713,0.231-4.072,0.16
	c-0.088,0-0.184,0-0.272,0l1.296-1.296c28.071-28.141,28.071-73.691,0-101.832l73.544-73.536
	C341.569,85.223,356.761,85.223,366.133,94.593L366.133,94.593z M212.021,224.705c-0.011-6.37,2.52-12.48,7.032-16.976l5.664-5.656
	c9.373,9.372,9.375,24.568,0.003,33.941c-0.001,0.001-0.002,0.002-0.003,0.003l-5.664,5.656
	C214.542,237.179,212.011,231.072,212.021,224.705z M77.637,349.153l-22.624-22.624c-9.373-9.372-9.375-24.568-0.003-33.941
	c0.001-0.001,0.002-0.002,0.003-0.003l113.128-113.112c1.068-1.054,2.233-2.005,3.48-2.84c0.376-0.256,0.8-0.464,1.176-0.696
	c0.861-0.531,1.756-1.004,2.68-1.416c0.488-0.216,0.984-0.4,1.488-0.576c0.862-0.315,1.741-0.582,2.632-0.8
	c0.544-0.128,1.088-0.248,1.64-0.344c0.88-0.133,1.767-0.219,2.656-0.256c0.842-0.044,1.686-0.044,2.528,0l-1.304,1.304
	c-28.071,28.141-28.071,73.691,0,101.832l-73.544,73.472C102.201,358.522,87.009,358.522,77.637,349.153L77.637,349.153z
	 M411.389,173.785L298.253,286.929c-19.943,19.959-51.619,21.964-73.92,4.68c-1.85-1.456-3.613-3.018-5.28-4.68l-22.624-22.656
	c-21.828-21.888-21.828-57.312,0-79.2l5.656-5.656l11.312,11.32l-5.656,5.656c-15.621,15.621-15.621,40.947,0,56.568l22.624,22.632
	l8,6.136l5.736,2.792c0.52,0.2,1.048,0.336,1.6,0.512c1.363,0.483,2.752,0.889,4.16,1.216c0.648,0.152,1.288,0.28,1.944,0.392
	c1.417,0.246,2.845,0.417,4.28,0.512c0.576,0.04,1.152,0.096,1.728,0.112c0.304,0,0.6,0.064,0.904,0.064
	c0.64,0,1.264-0.16,1.904-0.192c1.527-0.059,3.05-0.206,4.56-0.44c0.936-0.152,1.848-0.36,2.768-0.584
	c1.453-0.344,2.885-0.771,4.288-1.28c0.872-0.32,1.744-0.632,2.6-1.008c1.479-0.673,2.917-1.434,4.304-2.28
	c0.696-0.416,1.416-0.8,2.088-1.232c2.065-1.394,3.999-2.974,5.776-4.72l113.072-113.12c15.594-15.632,15.594-40.936,0-56.568
	l-22.632-22.624c-1.9-1.899-3.985-3.603-6.224-5.088c-0.36-0.232-0.752-0.368-1.112-0.592c-1.87-1.192-3.837-2.225-5.88-3.088
	l-0.128-0.04c-11.846-4.815-25.289-3.608-36.088,3.24c-0.288,0.176-0.608,0.288-0.896,0.48c-2.243,1.482-4.331,3.187-6.232,5.088
	l-73.544,73.536l-11.312-11.312l73.536-73.536c21.868-21.87,57.325-21.872,79.196-0.004c0.001,0.001,0.003,0.003,0.004,0.004
	l22.624,22.624c21.87,21.868,21.872,57.325,0.004,79.196c-0.001,0.001-0.003,0.003-0.004,0.004V173.785z"/>
<g>
</g>
<g>
</g>
<g>
</g>
<g>
</g>
<g>
</g>
<g>
</g>
<g>
</g>
<g>
</g>
<g>
</g>
<g>
</g>
<g>
</g>
<g>
</g>
<g>
</g>
<g>
</g>
<g>
</g>
</svg>
