<?xml version="1.0" encoding="iso-8859-1"?>
<!-- Generator: Adobe Illustrator 19.0.0, SVG Export Plug-In . SVG Version: 6.00 Build 0)  -->
<svg version="1.1" id="Capa_1" xmlns="http://www.w3.org/2000/svg" xmlns:xlink="http://www.w3.org/1999/xlink" x="0px" y="0px"
	 viewBox="0 0 481.732 481.732" style="enable-background:new 0 0 481.732 481.732;" xml:space="preserve">
<linearGradient id="SVGID_1_" gradientUnits="userSpaceOnUse" x1="-26.0084" y1="557.8171" x2="-26.0084" y2="622.1591" gradientTransform="matrix(8 0 0 -8 448.9332 4956.5894)">
	<stop  offset="0" style="stop-color:#006DF0"/>
	<stop  offset="1" style="stop-color:#00E7F0"/>
</linearGradient>
<path style="fill:url(#SVGID_1_);" d="M431.635,196.22c-17.904-17.767-39.543-31.32-63.344-39.672
	c37.922-30.292,44.108-85.59,13.816-123.512s-85.59-44.108-123.512-13.816c0,0,0,0,0,0C210.657-12.42,146.147,0.791,114.507,48.729
	c-29.924,45.337-19.915,106.067,22.976,139.404C55.676,215.059,0.518,291.608,0.867,377.732v64c0.026,22.08,17.92,39.974,40,40h320
	c22.08-0.026,39.974-17.92,40-40v-38.64h45.36c19.144-0.044,34.64-15.576,34.64-34.72v-53.28
	C480.954,270.49,463.232,227.699,431.635,196.22L431.635,196.22z M312.867,16.372c39.764-0.051,72.041,32.144,72.092,71.908
	c0.034,26.931-14.964,51.63-38.876,64.02c-2.168,1.12-4.384,2.168-6.688,3.088l-0.248,0.104c-0.273,0.069-0.54,0.157-0.8,0.264
	c-1.28,0.488-2.64,0.92-4.048,1.36c-4.368,1.403-8.869,2.349-13.432,2.824c-1.184,0.152-2.312,0.216-3.448,0.28
	c-3.088,0.152-6.064,0.144-9.056,0c-1.184-0.072-2.312-0.136-3.6-0.296c-4.532-0.472-9.003-1.407-13.344-2.792h-0.104
	c0.216-0.368,0.352-0.8,0.56-1.152c1.877-3.354,3.565-6.81,5.056-10.352c0.096-0.24,0.216-0.464,0.312-0.696
	c1.469-3.658,2.724-7.397,3.76-11.2c0.208-0.736,0.424-1.472,0.608-2.216c0.955-3.744,1.697-7.54,2.224-11.368
	c0.104-0.72,0.168-1.44,0.248-2.16c0.501-4.066,0.763-8.159,0.784-12.256c-0.009-3.857-0.228-7.711-0.656-11.544
	c-0.136-1.248-0.4-2.456-0.576-3.688c-0.368-2.544-0.76-5.08-1.312-7.568c-0.32-1.44-0.744-2.84-1.12-4.256
	c-0.6-2.24-1.224-4.464-1.968-6.656c-0.496-1.456-1.064-2.872-1.6-4.304c-0.8-2.088-1.672-4.152-2.624-6.176
	c-0.656-1.408-1.36-2.792-2.08-4.168c-1.04-1.976-2.152-3.92-3.32-5.832c-0.8-1.312-1.6-2.608-2.472-3.888
	c-1.288-1.904-2.664-3.744-4.08-5.6c-0.912-1.176-1.808-2.4-2.768-3.504c-1.6-1.872-3.288-3.648-5.008-5.408
	c-0.952-0.984-1.856-1.992-2.856-2.936c-0.288-0.272-0.528-0.576-0.8-0.8C283.701,20.912,298.105,16.361,312.867,16.372
	L312.867,16.372z M112.867,105.732c0-48.601,39.399-88,88-88s88,39.399,88,88c0,2.272-0.085,4.533-0.256,6.784
	c-0.144,1.888-0.384,3.752-0.64,5.6c-0.048,0.336-0.072,0.672-0.12,1.008c-1.902,12.14-6.322,23.749-12.976,34.08
	c-0.68,1.056-1.336,2.128-2.064,3.16l-0.048,0.112c-0.12,0.144-0.224,0.288-0.336,0.432c-8.089,11.321-18.749,20.56-31.104,26.96
	c-7.702,4.056-15.987,6.89-24.56,8.4c-1.704,0.352-3.336,0.568-5.232,0.8c-1.488,0.2-3.04,0.336-4.344,0.48h-0.984
	c-1.72,0.072-3.528,0.152-5.336,0.152h-0.88c-1.464,0-2.944-0.08-4.8-0.136c-1.688-0.144-3.312-0.296-5.048-0.52
	s-3.424-0.424-5.32-0.8c-8.547-1.522-16.806-4.364-24.48-8.424C131.123,168.752,112.795,138.604,112.867,105.732L112.867,105.732z
	 M384.867,441.732c0,13.255-10.745,24-24,24h-320c-13.255,0-24-10.745-24-24v-64c-0.352-80.887,52.456-152.404,129.864-175.872
	c2.248-0.686,4.586-1.034,6.936-1.032c3.179,0.007,6.329,0.617,9.28,1.8c6.077,2.356,12.36,4.142,18.768,5.336
	c2.136,0.44,4.264,0.72,6.344,0.976c1.92,0.264,3.76,0.424,5.776,0.608h0.96c1.736,0.088,3.464,0.168,5.192,0.168h0.88
	c2.04,0,4.072-0.08,6.32-0.16c0.232,0,0.928-0.048,1.176-0.064c1.808-0.168,3.624-0.328,5.224-0.552
	c2.232-0.272,4.288-0.544,6.248-0.96c6.501-1.202,12.876-3.01,19.04-5.4c5.113-2.051,10.769-2.31,16.048-0.736
	c77.236,23.738,129.947,95.087,129.944,175.888L384.867,441.732z M464.867,368.372c0.009,10.311-8.329,18.685-18.64,18.72h-45.36
	v-9.36c0.106-53.068-20.987-103.98-58.592-141.424c-2.824-2.816-5.744-5.536-8.72-8.176c-0.92-0.8-1.88-1.6-2.816-2.352
	c-2.096-1.792-4.192-3.584-6.4-5.28c-1.152-0.904-2.336-1.736-3.504-2.608c-2.016-1.512-4-3.032-6.096-4.472
	c-1.28-0.88-2.6-1.704-3.896-2.56c-2.008-1.328-4-2.656-6.072-3.912c-1.392-0.848-2.816-1.64-4.232-2.456
	c-2.016-1.16-4-2.32-6.072-3.408c-1.496-0.8-3.024-1.536-4.536-2.296c-2.008-1-4-2-6.072-2.936c-1.6-0.736-3.2-1.416-4.8-2.104
	c-2-0.856-4-1.696-6.032-2.48c-1.696-0.656-3.408-1.272-5.12-1.88c-1.184-0.424-2.344-0.896-3.536-1.296
	c0.8-0.608,1.488-1.336,2.264-1.968c1.6-1.312,3.144-2.664,4.664-4.072s2.928-2.76,4.328-4.216s2.832-3.048,4.192-4.632
	c0.688-0.8,1.472-1.536,2.144-2.4c1.496,0.568,3.072,1.064,4.6,1.552c5.329,1.696,10.815,2.851,16.376,3.448
	c1.528,0.176,2.968,0.272,4.552,0.368c1.816,0.088,3.544,0.168,5.368,0.168s3.552-0.08,5.424-0.176
	c1.528-0.088,2.968-0.184,4.4-0.352c5.574-0.59,11.074-1.743,16.416-3.44c1.6-0.504,3.2-1.016,4.712-1.6
	c0.248-0.08,0.496-0.176,0.736-0.272s0.312-0.104,0.464-0.168c3.993-1.592,8.404-1.797,12.528-0.584
	c23.667,7.329,45.204,20.286,62.768,37.76c28.6,28.488,44.641,67.217,44.56,107.584L464.867,368.372z"/>
<g>
</g>
<g>
</g>
<g>
</g>
<g>
</g>
<g>
</g>
<g>
</g>
<g>
</g>
<g>
</g>
<g>
</g>
<g>
</g>
<g>
</g>
<g>
</g>
<g>
</g>
<g>
</g>
<g>
</g>
</svg>
