<svg height="476pt" viewBox="-20 0 476 476.32504" width="476pt" xmlns="http://www.w3.org/2000/svg" xmlns:xlink="http://www.w3.org/1999/xlink"><linearGradient id="a"><stop offset="0" stop-color="#E93E3A"/><stop offset="1" stop-color="#FFFA3B"/></linearGradient><linearGradient id="b" gradientUnits="userSpaceOnUse" x1="312.16252" x2="312.16252" xlink:href="#a" y1="476.672" y2="-102.528"/><linearGradient id="c" gradientUnits="userSpaceOnUse" x1="168.16252" x2="168.16252" xlink:href="#a" y1="476.672" y2="-102.528"/><linearGradient id="d" gradientUnits="userSpaceOnUse" x1="160.16252" x2="160.16252" xlink:href="#a" y1="476.672" y2="-102.528"/><linearGradient id="e" gradientUnits="userSpaceOnUse" x1="136.16252" x2="136.16252" xlink:href="#a" y1="476.672" y2="-102.528"/><path d="m360.164062 352c0-26.507812-21.492187-48-48-48-26.511718 0-48 21.492188-48 48s21.488282 48 48 48c26.496094-.027344 47.972657-21.5 48-48zm-48 32c-17.675781 0-32-14.328125-32-32s14.324219-32 32-32c17.671876 0 32 14.328125 32 32s-14.328124 32-32 32zm0 0" fill="url(#b)"/><path d="m434.136719 428.664062-52.476563-52.480468c1.398438-1.246094 3.039063-2.550782 4.429688-3.65625 6.273437-4.953125 14.074218-11.121094 14.074218-20.527344s-7.808593-15.574219-14.074218-20.527344c-2.824219-1.929687-5.320313-4.300781-7.390625-7.023437-.578125-3.578125-.523438-7.226563.160156-10.785157.910156-8.183593 1.949219-17.472656-4.472656-23.886718-6.425781-6.417969-15.71875-5.410156-23.886719-4.472656-3.554688.683593-7.203125.738281-10.777344.160156-2.730468-2.066406-5.105468-4.5625-7.03125-7.394532-4.953125-6.269531-11.121094-14.070312-20.527344-14.070312-9.410156 0-15.578124 7.808594-20.53125 14.070312-1.925781 2.828126-4.296874 5.324219-7.023437 7.394532-3.574219.570312-7.226563.515625-10.78125-.160156-8.175781-.9375-17.472656-1.953126-23.890625 4.472656-6.414062 6.421875-5.382812 15.703125-4.472656 23.886718.683594 3.554688.738281 7.203126.160156 10.777344-2.066406 2.726563-4.5625 5.101563-7.390625 7.03125-6.273437 4.953125-14.070313 11.121094-14.070313 20.527344s7.804688 15.574219 14.070313 20.527344c1.390625 1.105468 3.03125 2.402344 4.433594 3.65625l-52.480469 52.480468c-2.089844 2.085938-2.859375 5.152344-2.003906 7.976563.855468 2.824219 3.195312 4.949219 6.089844 5.527344l23.089843 4.632812 4.632813 23.085938c.578125 2.898437 2.707031 5.238281 5.535156 6.089843 2.832031.863282 5.90625.09375 8-2l52.480469-52.480468c1.246093 1.398437 2.550781 3.039062 3.65625 4.433594 4.917969 6.269531 11.085937 14.070312 20.496093 14.070312 9.40625 0 15.574219-7.808594 20.527344-14.070312 1.101563-1.394532 2.398438-3.035157 3.65625-4.433594l52.480469 52.480468c2.085937 2.085938 5.152344 2.855469 7.976563 2 2.824218-.855468 4.949218-3.195312 5.527343-6.089843l4.628907-23.085938 23.089843-4.632812c2.894531-.578125 5.234375-2.703125 6.089844-5.527344s.085937-5.890625-2.003906-7.976563zm-199.390625 23.441407-2.742188-13.707031c-.636718-3.164063-3.109375-5.636719-6.273437-6.269532l-13.671875-2.746094 32.800781-32.796874c-1.464844 6.351562.445313 13.011718 5.054687 17.625 4.609376 4.609374 11.269532 6.523437 17.625 5.0625zm85.417968-36.105469c-2.058593 2.601562-6.320312 8-8 8-1.679687 0-5.929687-5.398438-8-8-3.375-5.148438-8-9.359375-13.441406-12.238281-3.023437-1.175781-6.246094-1.734375-9.488281-1.648438-3.070313.058594-6.136719.285157-9.183594.6875-3.554687.675781-7.203125.726563-10.777343.144531-.636719-3.585937-.609376-7.257812.089843-10.832031 1.25-6.210937.921875-12.632812-.960937-18.679687-2.882813-5.4375-7.09375-10.058594-12.238282-13.433594-2.601562-2.054688-8-6.320312-8-8s5.398438-5.929688 8-8c5.148438-3.375 9.359376-8 12.238282-13.441406 1.882812-6.042969 2.210937-12.464844.960937-18.671875-.683593-3.554688-.730469-7.203125-.144531-10.773438 3.585938-.636719 7.257812-.605469 10.832031.085938 6.207031 1.257812 12.632813.929687 18.679688-.960938 5.4375-2.882812 10.054687-7.09375 13.433593-12.238281 2.054688-2.601562 6.320313-8 8-8 1.679688 0 5.925782 5.398438 8 8 3.375 5.148438 7.996094 9.359375 13.4375 12.238281 6.046876 1.886719 12.46875 2.21875 18.671876.960938 3.554687-.683594 7.203124-.730469 10.777343-.144531.640625 3.585937.609375 7.257812-.089843 10.832031-1.25 6.210937-.917969 12.632812.960937 18.679687 2.886719 5.4375 7.09375 10.058594 12.242187 13.433594 2.597657 2.054688 8 6.320312 8 8s-5.402343 5.929688-8 8c-5.148437 3.375-9.359374 8-12.242187 13.441406-1.878906 6.042969-2.210937 12.464844-.960937 18.671875.683593 3.554688.734374 7.203125.144531 10.773438-3.585938.628906-7.253907.597656-10.832031-.085938-6.207032-1.257812-12.632813-.925781-18.679688.960938-5.433594 2.882812-10.054688 7.09375-13.429688 12.238281zm78.398438 16.160156c-3.164062.632813-5.636719 3.109375-6.273438 6.273438l-2.742187 13.671875-32.800781-32.800781c6.355468 1.460937 13.015625-.449219 17.625-5.0625 4.609375-4.613282 6.519531-11.273438 5.054687-17.625l32.800781 32.796874zm0 0" fill="url(#b)"/><path d="m176.164062 432h-136c-22.082031-.027344-39.976562-17.917969-40-40v-352c.023438-22.082031 17.917969-39.9726562 40-40h256c22.078126.0273438 39.972657 17.917969 40 40v208h-16v-208c0-13.253906-10.746093-24-24-24h-256c-13.257812 0-24 10.746094-24 24v352c0 13.253906 10.742188 24 24 24h136zm0 0" fill="url(#c)"/><path d="m48.164062 208h240v16h-240zm0 0" fill="url(#c)"/><path d="m48.164062 256h224v16h-224zm0 0" fill="url(#d)"/><path d="m48.164062 304h176v16h-176zm0 0" fill="url(#e)"/><g fill="url(#c)"><path d="m48.164062 160h240v16h-240zm0 0"/><path d="m48.164062 112h240v16h-240zm0 0"/></g></svg>
