<svg height="480pt" viewBox="-8 0 480 480.16865" width="480pt" xmlns="http://www.w3.org/2000/svg" xmlns:xlink="http://www.w3.org/1999/xlink"><linearGradient id="a"><stop offset="0" stop-color="#12c2e9"/><stop offset=".5" stop-color="#c471ed"/><stop offset=".982" stop-color="#f64f59"/></linearGradient><linearGradient id="b" gradientUnits="userSpaceOnUse" x1="232.084325" x2="232.084325" xlink:href="#a" y1="656.244139" y2="-98.971861"/><linearGradient id="c" gradientUnits="userSpaceOnUse" x1="360.084325" x2="360.084325" xlink:href="#a" y1="645.260139" y2="-101.491861"/><path d="m451.75 313.429688c-24.988281 15.773437-54.132812 23.6875-83.664062 22.726562-88.324219-.101562-159.898438-71.675781-160-160 1.019531-67.898438 43.324218-128.316406 106.78125-152.496094 3.210937-1.1875 5.308593-4.285156 5.222656-7.707031-.089844-3.417969-2.339844-6.40625-5.605469-7.429687-24.253906-6.425782-49.324219-9.242188-74.398437-8.367188-132.550782 0-240.0000005 107.453125-240.0000005 240s107.4492185 240 240.0000005 240c100.582031 1.039062 190.578124-62.304688 223.542968-157.335938 1.140625-3.226562.105469-6.824218-2.582031-8.945312-2.683594-2.125-6.421875-2.304688-9.296875-.445312zm-211.664062 150.726562c-123.714844 0-224-100.289062-224-224s100.285156-224 224-224c15.679687-.21875 31.355468.664062 46.910156 2.648438-57.675782 31.519531-93.9375 91.632812-94.910156 157.351562.109374 97.15625 78.84375 175.890625 176 176 24.785156.535156 49.394531-4.320312 72.117187-14.230469-36.105469 77.746094-114.402344 127.132813-200.117187 126.230469zm0 0" fill="url(#b)"/><path d="m439.722656 150.660156c-.921875-2.964844-3.480468-5.125-6.558594-5.542968l-45.679687-6.199219-20.328125-38.496094c-1.515625-2.449219-4.191406-3.9375-7.070312-3.9375-2.882813 0-5.554688 1.488281-7.074219 3.9375l-20.328125 38.496094-45.679688 6.199219c-3.082031.417968-5.640625 2.582031-6.5625 5.550781s-.042968 6.207031 2.257813 8.296875l32.714843 29.800781-7.699218 41.941406c-.554688 2.976563.617187 6.011719 3.027344 7.839844 2.410156 1.832031 5.648437 2.144531 8.367187.808594l40.976563-20.152344 40.972656 20.152344c1.097656.535156 2.300781.808593 3.523437.800781 2.375 0 4.628907-1.054688 6.148438-2.878906 1.519531-1.824219 2.152343-4.234375 1.722656-6.570313l-7.695313-41.941406 32.710938-29.800781c2.304688-2.09375 3.183594-5.332032 2.253906-8.304688zm-49.023437 29.273438c-2.039063 1.859375-2.976563 4.640625-2.480469 7.359375l5.601562 30.679687-30.230468-14.863281c-2.226563-1.09375-4.832032-1.09375-7.058594 0l-30.207031 14.863281 5.601562-30.679687c.5-2.71875-.441406-5.5-2.480469-7.359375l-23.335937-21.265625 32.800781-4.449219c2.554688-.347656 4.789063-1.914062 5.988282-4.199219l15.1875-28.726562 15.199218 28.726562c1.203125 2.285157 3.433594 3.851563 5.992188 4.199219l32.800781 4.449219zm0 0" fill="url(#c)"/></svg>