<?xml version="1.0" encoding="iso-8859-1"?>
<!-- Generator: Adobe Illustrator 19.0.0, SVG Export Plug-In . SVG Version: 6.00 Build 0)  -->
<svg version="1.1" id="Capa_1" xmlns="http://www.w3.org/2000/svg" xmlns:xlink="http://www.w3.org/1999/xlink" x="0px" y="0px"
	 viewBox="0 0 480.113 480.113" style="enable-background:new 0 0 480.113 480.113;" xml:space="preserve">
<linearGradient id="SVGID_1_" gradientUnits="userSpaceOnUse" x1="-26.8219" y1="557.4013" x2="-26.8219" y2="623.0743" gradientTransform="matrix(8 0 0 -8 454.6316 4941.5063)">
	<stop  offset="0" style="stop-color:#006DF0"/>
	<stop  offset="1" style="stop-color:#00E7F0"/>
</linearGradient>
<path style="fill:url(#SVGID_1_);" d="M432.053,294.456c-20.527-11.946-46.719-6.939-61.392,11.736l-85.664-49.432
	c9.297-24.713-3.201-52.283-27.914-61.58c-2.924-1.1-5.948-1.911-9.03-2.42V95.336c26.139-4.418,43.747-29.19,39.329-55.329
	s-29.19-43.747-55.329-39.329s-43.747,29.19-39.329,55.329c3.405,20.143,19.186,35.924,39.329,39.329v97.44
	c-26.05,4.309-43.674,28.92-39.364,54.97c0.51,3.082,1.321,6.107,2.42,9.03l-85.664,49.448
	c-14.664-18.686-40.857-23.707-61.392-11.768c-22.967,13.239-30.854,42.59-17.615,65.557c13.239,22.967,42.59,30.854,65.557,17.615
	c20.018-11.539,28.975-35.702,21.314-57.5l85.776-49.52c7.341,8.866,17.62,14.802,28.968,16.728v97.44
	c-26.139,4.418-43.747,29.19-39.329,55.329c4.418,26.139,29.19,43.747,55.329,39.329s43.747-29.19,39.329-55.329
	c-3.405-20.143-19.186-35.924-39.329-39.329v-97.44c11.343-1.918,21.622-7.842,28.968-16.696l85.776,49.52
	c-8.774,25.015,4.392,52.408,29.407,61.182c25.015,8.774,52.408-4.392,61.182-29.407
	C461.031,330.138,452.067,305.987,432.053,294.456L432.053,294.456z M88.053,363.736c-15.299,8.848-34.874,3.619-43.722-11.68
	c-8.848-15.299-3.619-34.874,11.68-43.722s34.874-3.619,43.722,11.68c0.008,0.014,0.016,0.028,0.024,0.042
	c8.89,15.11,3.848,34.567-11.263,43.457c-0.146,0.086-0.294,0.171-0.441,0.255V363.736z M208.053,48.056c0-17.673,14.327-32,32-32
	c17.673,0,32,14.327,32,32s-14.327,32-32,32C222.38,80.056,208.053,65.729,208.053,48.056z M272.053,432.056
	c0,17.673-14.327,32-32,32c-17.673,0-32-14.327-32-32s14.327-32,32-32C257.726,400.056,272.053,414.383,272.053,432.056z
	 M240.053,272.056c-17.673,0-32-14.327-32-32s14.327-32,32-32c17.673,0,32,14.327,32,32S257.726,272.056,240.053,272.056z
	 M435.757,352.056c-8.839,15.304-28.411,20.545-43.715,11.706c-15.304-8.839-20.545-28.411-11.706-43.715
	c4.242-7.345,11.228-12.706,19.421-14.903c2.725-0.726,5.532-1.091,8.352-1.088c17.673,0.036,31.971,14.392,31.935,32.065
	C440.032,341.716,438.554,347.211,435.757,352.056z"/>
<g>
</g>
<g>
</g>
<g>
</g>
<g>
</g>
<g>
</g>
<g>
</g>
<g>
</g>
<g>
</g>
<g>
</g>
<g>
</g>
<g>
</g>
<g>
</g>
<g>
</g>
<g>
</g>
<g>
</g>
</svg>
