<?xml version="1.0" encoding="iso-8859-1"?>
<!-- Generator: Adobe Illustrator 19.0.0, SVG Export Plug-In . SVG Version: 6.00 Build 0)  -->
<svg version="1.1" id="Capa_1" xmlns="http://www.w3.org/2000/svg" xmlns:xlink="http://www.w3.org/1999/xlink" x="0px" y="0px"
	 viewBox="0 0 480 480" style="enable-background:new 0 0 480 480;" xml:space="preserve">
<linearGradient id="SVGID_1_" gradientUnits="userSpaceOnUse" x1="-26.875" y1="529.325" x2="-26.875" y2="586.071" gradientTransform="matrix(8 0 0 -8 455 4686.2998)">
	<stop  offset="0" style="stop-color:#006DF0"/>
	<stop  offset="1" style="stop-color:#00E7F0"/>
</linearGradient>
<path style="fill:url(#SVGID_1_);" d="M408,451.7H72c-39.746-0.044-71.956-32.254-72-72v-64c0-4.418,3.582-8,8-8s8,3.582,8,8v64
	c0.035,30.913,25.087,55.965,56,56h336c30.913-0.035,55.965-25.087,56-56v-64c0-4.418,3.582-8,8-8s8,3.582,8,8v64
	C479.956,419.446,447.746,451.656,408,451.7z"/>
<linearGradient id="SVGID_2_" gradientUnits="userSpaceOnUse" x1="-26.8401" y1="529.337" x2="-26.8401" y2="586.082" gradientTransform="matrix(8 0 0 -8 455 4686.2998)">
	<stop  offset="0" style="stop-color:#006DF0"/>
	<stop  offset="1" style="stop-color:#00E7F0"/>
</linearGradient>
<path style="fill:url(#SVGID_2_);" d="M376.656,28.3h-128c-4.418,0-8,3.582-8,8s3.582,8,8,8h107.432L98.344,302.044
	c-3.178,3.069-3.266,8.134-0.196,11.312c3.069,3.178,8.134,3.266,11.312,0.196c0.067-0.064,0.132-0.13,0.196-0.196l259-258.992
	V164.3c0,4.418,3.582,8,8,8s8-3.582,8-8v-128C384.656,31.882,381.074,28.3,376.656,28.3z"/>
<g>
</g>
<g>
</g>
<g>
</g>
<g>
</g>
<g>
</g>
<g>
</g>
<g>
</g>
<g>
</g>
<g>
</g>
<g>
</g>
<g>
</g>
<g>
</g>
<g>
</g>
<g>
</g>
<g>
</g>
</svg>
