<?xml version="1.0" encoding="iso-8859-1"?>
<!-- Generator: Adobe Illustrator 19.0.0, SVG Export Plug-In . SVG Version: 6.00 Build 0)  -->
<svg version="1.1" id="Capa_1" xmlns="http://www.w3.org/2000/svg" xmlns:xlink="http://www.w3.org/1999/xlink" x="0px" y="0px"
	 viewBox="0 0 480.163 480.163" style="enable-background:new 0 0 480.163 480.163;" xml:space="preserve">
<g>
	
		<linearGradient id="SVGID_1_" gradientUnits="userSpaceOnUse" x1="-26.7934" y1="557.4982" x2="-26.7934" y2="616.3332" gradientTransform="matrix(8 0 0 -8 454.4289 4942.4688)">
		<stop  offset="0" style="stop-color:#006DF0"/>
		<stop  offset="1" style="stop-color:#00E7F0"/>
	</linearGradient>
	<path style="fill:url(#SVGID_1_);" d="M472.082,144.163h-80.408C387.458,60.437,316.168-4.02,232.441,0.196
		C154.611,4.114,92.392,66.333,88.474,144.163H8.082c-4.418,0-8,3.582-8,8v320c0,4.418,3.582,8,8,8h464c4.418,0,8-3.582,8-8v-320
		C480.082,147.745,476.5,144.163,472.082,144.163z M240.082,16.163c71.968,0.09,131.443,56.162,135.768,128H104.314
		C108.638,72.325,168.113,16.253,240.082,16.163z M464.082,464.163h-448v-304h448V464.163z"/>
	
		<linearGradient id="SVGID_2_" gradientUnits="userSpaceOnUse" x1="-26.7929" y1="557.4982" x2="-26.7929" y2="616.3332" gradientTransform="matrix(8 0 0 -8 454.4289 4942.4688)">
		<stop  offset="0" style="stop-color:#006DF0"/>
		<stop  offset="1" style="stop-color:#00E7F0"/>
	</linearGradient>
	<path style="fill:url(#SVGID_2_);" d="M240.082,208.163c-30.927,0.238-55.805,25.503-55.567,56.43
		c0.212,27.508,20.372,50.789,47.567,54.93v88.64c0,4.418,3.582,8,8,8s8-3.582,8-8v-88.64c30.575-4.656,51.587-33.218,46.93-63.793
		C290.87,228.535,267.59,208.375,240.082,208.163L240.082,208.163z M240.082,304.163c-22.091,0-40-17.909-40-40s17.909-40,40-40
		s40,17.909,40,40C280.055,286.244,262.162,304.137,240.082,304.163z"/>
</g>
<g>
</g>
<g>
</g>
<g>
</g>
<g>
</g>
<g>
</g>
<g>
</g>
<g>
</g>
<g>
</g>
<g>
</g>
<g>
</g>
<g>
</g>
<g>
</g>
<g>
</g>
<g>
</g>
<g>
</g>
</svg>
