<?xml version="1.0" encoding="iso-8859-1"?>
<!-- Generator: Adobe Illustrator 19.0.0, SVG Export Plug-In . SVG Version: 6.00 Build 0)  -->
<svg version="1.1" id="Capa_1" xmlns="http://www.w3.org/2000/svg" xmlns:xlink="http://www.w3.org/1999/xlink" x="0px" y="0px"
	 viewBox="0 0 480.166 480.166" style="enable-background:new 0 0 480.166 480.166;" xml:space="preserve">
<g>
	
		<linearGradient id="SVGID_1_" gradientUnits="userSpaceOnUse" x1="-26.7919" y1="558.5866" x2="-26.7919" y2="617.6346" gradientTransform="matrix(8 0 0 -8 454.4183 4941.7344)">
		<stop  offset="0" style="stop-color:#006DF0"/>
		<stop  offset="1" style="stop-color:#00E7F0"/>
	</linearGradient>
	<path style="fill:url(#SVGID_1_);" d="M240.083,344.082c-57.438,0-104-46.562-104-104s46.562-104,104-104s104,46.562,104,104
		C344.017,297.492,297.493,344.015,240.083,344.082z M240.083,152.082c-48.601,0-88,39.399-88,88s39.399,88,88,88s88-39.399,88-88
		C328.026,191.504,288.66,152.139,240.083,152.082z"/>
	
		<linearGradient id="SVGID_2_" gradientUnits="userSpaceOnUse" x1="-26.7919" y1="558.5866" x2="-26.7919" y2="617.6346" gradientTransform="matrix(8 0 0 -8 454.4183 4941.7344)">
		<stop  offset="0" style="stop-color:#006DF0"/>
		<stop  offset="1" style="stop-color:#00E7F0"/>
	</linearGradient>
	<path style="fill:url(#SVGID_2_);" d="M239.971,480.162c-5.104,0-10.224-0.168-15.312-0.504
		c-12.006-0.887-21.543-10.448-22.4-22.456c-2.139-30.894-28.918-54.204-59.811-52.065c-11.835,0.819-23.105,5.371-32.189,13.001
		c-9.253,7.744-22.79,7.516-31.776-0.536c-6.624-6.004-12.893-12.388-18.776-19.12c-7.934-8.951-8.016-22.393-0.192-31.44
		c20.467-23.187,18.261-58.576-4.926-79.043c-9.082-8.016-20.519-12.872-32.594-13.837c-11.918-1.075-21.199-10.805-21.712-22.76
		c-0.441-8.914-0.367-17.846,0.224-26.752c0.869-12.029,10.442-21.592,22.472-22.448c30.889-2.139,54.197-28.913,52.058-59.802
		c-0.82-11.839-5.375-23.113-13.01-32.198c-7.717-9.243-7.485-22.747,0.544-31.72c6-6.623,12.382-12.889,19.112-18.768
		c8.945-7.947,22.395-8.033,31.44-0.2c23.188,20.466,58.576,18.26,79.043-4.927c8.018-9.084,12.873-20.523,13.837-32.601
		c1.076-11.916,10.806-21.195,22.76-21.704c8.914-0.433,17.846-0.358,26.752,0.224c12.026,0.868,21.589,10.438,22.448,22.464
		c2.156,30.897,28.952,54.196,59.848,52.039c11.821-0.825,23.076-5.373,32.152-12.991c9.235-7.736,22.752-7.508,31.72,0.536
		c6.625,6.009,12.896,12.396,18.784,19.128c7.938,8.948,8.016,22.392,0.184,31.432c-20.47,23.184-18.27,58.573,4.914,79.043
		c9.089,8.025,20.536,12.883,32.622,13.845c11.91,1.079,21.184,10.804,21.696,22.752c0.441,8.922,0.367,17.862-0.224,26.776
		c-0.883,12.005-10.442,21.543-22.448,22.4c-30.89,2.126-54.208,28.891-52.082,59.781c0.815,11.846,5.371,23.128,13.01,32.219
		c7.748,9.243,7.519,22.776-0.536,31.752c-6.005,6.623-12.389,12.892-19.12,18.776c-8.946,7.94-22.39,8.022-31.432,0.192
		c-23.184-20.47-58.573-18.27-79.043,4.914c-8.025,9.089-12.883,20.536-13.845,32.622c-1.08,11.913-10.809,21.188-22.76,21.696
		C247.627,480.082,243.803,480.162,239.971,480.162L239.971,480.162z M146.187,388.962c37.899,0.024,69.334,29.338,72,67.144
		c0.23,4.077,3.469,7.339,7.544,7.6c8.29,0.557,16.606,0.626,24.904,0.208c3.919-0.088,7.168-3.064,7.6-6.96
		c3.135-39.641,37.812-69.234,77.453-66.099c15.56,1.231,30.298,7.484,41.995,17.819c3.015,2.498,7.413,2.386,10.296-0.264
		c6.259-5.471,12.195-11.303,17.776-17.464c2.708-3.031,2.769-7.593,0.144-10.696c-25.607-30.48-21.657-75.947,8.822-101.554
		c11.672-9.806,26.154-15.66,41.362-16.718c4.074-0.226,7.339-3.456,7.608-7.528c0.545-8.293,0.615-16.611,0.208-24.912
		c-0.099-3.918-3.074-7.162-6.968-7.6c-39.64-3.144-69.226-37.827-66.082-77.467c1.234-15.558,7.49-30.294,17.826-41.989
		c2.465-3.023,2.356-7.392-0.256-10.288c-5.476-6.266-11.309-12.209-17.472-17.8c-3.036-2.69-7.585-2.748-10.688-0.136
		c-30.47,25.611-75.933,21.672-101.545-8.798c-9.813-11.675-15.67-26.163-16.727-41.378c-0.275-4.061-3.493-7.303-7.552-7.608
		c-8.285-0.557-16.595-0.626-24.888-0.208c-3.904,0.136-7.13,3.091-7.608,6.968c-3.144,39.64-37.827,69.226-77.467,66.082
		c-15.558-1.234-30.294-7.49-41.989-17.826c-3.016-2.508-7.424-2.391-10.304,0.272c-6.256,5.463-12.189,11.287-17.768,17.44
		c-2.75,3.024-2.811,7.624-0.144,10.72c25.603,30.483,21.647,75.95-8.836,101.553c-11.669,9.801-26.145,15.652-41.348,16.711
		c-4.063,0.27-7.311,3.484-7.624,7.544c-0.545,8.285-0.615,16.595-0.208,24.888c0.103,3.923,3.084,7.17,6.984,7.608
		c39.64,3.144,69.226,37.827,66.082,77.467c-1.234,15.558-7.49,30.294-17.826,41.989c-2.503,3.017-2.39,7.419,0.264,10.304
		c5.467,6.261,11.295,12.197,17.456,17.776c3.024,2.741,7.616,2.803,10.712,0.144c12.938-10.934,29.325-16.942,46.264-16.96
		L146.187,388.962z"/>
</g>
<g>
</g>
<g>
</g>
<g>
</g>
<g>
</g>
<g>
</g>
<g>
</g>
<g>
</g>
<g>
</g>
<g>
</g>
<g>
</g>
<g>
</g>
<g>
</g>
<g>
</g>
<g>
</g>
<g>
</g>
</svg>
