<svg height="480pt" viewBox="0 0 480 480" width="480pt" xmlns="http://www.w3.org/2000/svg" xmlns:xlink="http://www.w3.org/1999/xlink"><linearGradient id="a"><stop offset="0" stop-color="#E93E3A"/><stop offset=".5" stop-color="#F9B03F"/><stop offset=".982" stop-color="#FFFA3B"/></linearGradient><linearGradient id="b" gradientUnits="userSpaceOnUse" x1="240" x2="240" xlink:href="#a" y1="627.888" y2="-148.2"/><linearGradient id="c" gradientUnits="userSpaceOnUse" x1="240" x2="240" xlink:href="#a" y1="627.936" y2="-148.232"/><linearGradient id="d" gradientUnits="userSpaceOnUse" x1="240" x2="240" xlink:href="#a" y1="627.92" y2="-148.24"/><linearGradient id="e" gradientUnits="userSpaceOnUse" x1="96" x2="96" xlink:href="#a" y1="624.024" y2="-143.24"/><linearGradient id="f" gradientUnits="userSpaceOnUse" x1="384" x2="384" xlink:href="#a" y1="622.936" y2="-144.328"/><linearGradient id="g" gradientUnits="userSpaceOnUse" x1="384" x2="384" xlink:href="#a" y1="631.912" y2="-153.36"/><linearGradient id="h" gradientUnits="userSpaceOnUse" x1="440" x2="440" xlink:href="#a" y1="602.384" y2="-128.504"/><linearGradient id="i" gradientUnits="userSpaceOnUse" x1="40" x2="40" xlink:href="#a" y1="608.208" y2="-122.68"/><linearGradient id="j" gradientUnits="userSpaceOnUse" x1="96" x2="96" xlink:href="#a" y1="633.048" y2="-152.224"/><path d="m240 384c79.527344 0 144-64.472656 144-144s-64.472656-144-144-144-144 64.472656-144 144c.09375 79.492188 64.507812 143.90625 144 144zm0-272c70.691406 0 128 57.308594 128 128s-57.308594 128-128 128-128-57.308594-128-128c.082031-70.65625 57.34375-127.917969 128-128zm0 0" fill="url(#b)"/><path d="m240 480c4.417969 0 8-3.582031 8-8v-64c0-4.417969-3.582031-8-8-8s-8 3.582031-8 8v64c0 4.417969 3.582031 8 8 8zm0 0" fill="url(#c)"/><path d="m240 80c4.417969 0 8-3.582031 8-8v-64c0-4.417969-3.582031-8-8-8s-8 3.582031-8 8v64c0 4.417969 3.582031 8 8 8zm0 0" fill="url(#d)"/><path d="m114.34375 125.65625c3.140625 3.03125 8.128906 2.988281 11.214844-.097656 3.085937-3.085938 3.128906-8.074219.097656-11.214844l-48-48c-3.140625-3.03125-8.128906-2.988281-11.214844.097656-3.085937 3.085938-3.128906 8.074219-.097656 11.214844zm0 0" fill="url(#e)"/><path d="m365.65625 354.34375c-3.140625-3.03125-8.128906-2.988281-11.214844.097656-3.085937 3.085938-3.128906 8.074219-.097656 11.214844l48 48c3.140625 3.03125 8.128906 2.988281 11.214844-.097656 3.085937-3.085938 3.128906-8.074219.097656-11.214844zm0 0" fill="url(#f)"/><path d="m360 128c2.121094 0 4.15625-.84375 5.65625-2.34375l48-48c3.03125-3.140625 2.988281-8.128906-.097656-11.214844-3.085938-3.085937-8.074219-3.128906-11.214844-.097656l-48 48c-2.285156 2.289062-2.972656 5.730469-1.734375 8.71875s4.15625 4.9375 7.390625 4.9375zm0 0" fill="url(#g)"/><path d="m472 232h-64c-4.417969 0-8 3.582031-8 8s3.582031 8 8 8h64c4.417969 0 8-3.582031 8-8s-3.582031-8-8-8zm0 0" fill="url(#h)"/><path d="m8 248h64c4.417969 0 8-3.582031 8-8s-3.582031-8-8-8h-64c-4.417969 0-8 3.582031-8 8s3.582031 8 8 8zm0 0" fill="url(#i)"/><path d="m77.65625 413.65625 48-48c3.03125-3.140625 2.988281-8.128906-.097656-11.214844-3.085938-3.085937-8.074219-3.128906-11.214844-.097656l-48 48c-2.078125 2.007812-2.914062 4.984375-2.179688 7.78125.730469 2.796875 2.914063 4.980469 5.710938 5.710938 2.796875.734374 5.773438-.101563 7.78125-2.179688zm0 0" fill="url(#j)"/></svg>
