<?xml version="1.0" encoding="iso-8859-1"?>
<!-- Generator: Adobe Illustrator 19.0.0, SVG Export Plug-In . SVG Version: 6.00 Build 0)  -->
<svg version="1.1" id="Capa_1" xmlns="http://www.w3.org/2000/svg" xmlns:xlink="http://www.w3.org/1999/xlink" x="0px" y="0px"
	 viewBox="0 0 480 480" style="enable-background:new 0 0 480 480;" xml:space="preserve">
<linearGradient id="SVGID_1_" gradientUnits="userSpaceOnUse" x1="-26.875" y1="560.986" x2="-26.875" y2="621.986" gradientTransform="matrix(8 0 0 -8 455 4941)">
	<stop  offset="0" style="stop-color:#FB0000"/>
	<stop  offset="1" style="stop-color:#F0BD00"/>
</linearGradient>
<path style="fill:url(#SVGID_1_);" d="M408,64h-80V40c-0.026-22.08-17.92-39.974-40-40h-96c-22.08,0.026-39.974,17.92-40,40v24H72
	c-4.418,0-8,3.582-8,8s3.582,8,8,8h24v360c0.026,22.08,17.92,39.974,40,40h208c22.08-0.026,39.974-17.92,40-40V80h24
	c4.418,0,8-3.582,8-8S412.418,64,408,64z M168,40c0-13.255,10.745-24,24-24h96c13.255,0,24,10.745,24,24v24H168V40z M368,440
	c0,13.255-10.745,24-24,24H136c-13.255,0-24-10.745-24-24V80h256V440z"/>
<g>
	
		<linearGradient id="SVGID_2_" gradientUnits="userSpaceOnUse" x1="-34.875" y1="560.986" x2="-34.875" y2="621.986" gradientTransform="matrix(8 0 0 -8 455 4941)">
		<stop  offset="0" style="stop-color:#FB0000"/>
		<stop  offset="1" style="stop-color:#F0BD00"/>
	</linearGradient>
	<path style="fill:url(#SVGID_2_);" d="M176,120c-4.418,0-8,3.582-8,8v288c0,4.418,3.582,8,8,8s8-3.582,8-8V128
		C184,123.582,180.418,120,176,120z"/>
	
		<linearGradient id="SVGID_3_" gradientUnits="userSpaceOnUse" x1="-18.875" y1="560.986" x2="-18.875" y2="621.986" gradientTransform="matrix(8 0 0 -8 455 4941)">
		<stop  offset="0" style="stop-color:#FB0000"/>
		<stop  offset="1" style="stop-color:#F0BD00"/>
	</linearGradient>
	<path style="fill:url(#SVGID_3_);" d="M304,120c-4.418,0-8,3.582-8,8v288c0,4.418,3.582,8,8,8s8-3.582,8-8V128
		C312,123.582,308.418,120,304,120z"/>
</g>
<linearGradient id="SVGID_4_" gradientUnits="userSpaceOnUse" x1="-26.875" y1="560.986" x2="-26.875" y2="621.986" gradientTransform="matrix(8 0 0 -8 455 4941)">
	<stop  offset="0" style="stop-color:#FB0000"/>
	<stop  offset="1" style="stop-color:#F0BD00"/>
</linearGradient>
<path style="fill:url(#SVGID_4_);" d="M240,120c-4.418,0-8,3.582-8,8v288c0,4.418,3.582,8,8,8s8-3.582,8-8V128
	C248,123.582,244.418,120,240,120z"/>
<g>
</g>
<g>
</g>
<g>
</g>
<g>
</g>
<g>
</g>
<g>
</g>
<g>
</g>
<g>
</g>
<g>
</g>
<g>
</g>
<g>
</g>
<g>
</g>
<g>
</g>
<g>
</g>
<g>
</g>
</svg>
