<?xml version="1.0" encoding="iso-8859-1"?>
<!-- Generator: Adobe Illustrator 19.0.0, SVG Export Plug-In . SVG Version: 6.00 Build 0)  -->
<svg version="1.1" id="Capa_1" xmlns="http://www.w3.org/2000/svg" xmlns:xlink="http://www.w3.org/1999/xlink" x="0px" y="0px"
	 viewBox="0 0 486.496 486.496" style="enable-background:new 0 0 486.496 486.496;" xml:space="preserve">
<linearGradient id="SVGID_1_" gradientUnits="userSpaceOnUse" x1="-25.685" y1="561.225" x2="-25.685" y2="624.225" gradientTransform="matrix(8 0 0 -8 448.7279 4991.3999)">
	<stop  offset="0" style="stop-color:#006DF0"/>
	<stop  offset="1" style="stop-color:#00E7F0"/>
</linearGradient>
<path style="fill:url(#SVGID_1_);" d="M418.6,192.344l67.896-67.888L362.032,0l-67.88,67.896L282.84,56.584
	c-3.124-3.123-8.188-3.123-11.312,0L79.192,248.912c-9.373,9.372-9.375,24.568-0.003,33.941c0.001,0.001,0.002,0.002,0.003,0.003
	l22.624,22.624l-16.968,16.968c-9.376,9.37-9.38,24.566-0.011,33.941c0.004,0.004,0.007,0.007,0.011,0.011l5.656,5.656L0,452.56
	l33.936,33.936L124.448,396l5.656,5.656c9.372,9.373,24.568,9.375,33.941,0.003c0.001-0.001,0.002-0.002,0.003-0.003l16.968-16.968
	l22.624,22.624c9.372,9.373,24.568,9.375,33.941,0.003c0.001-0.001,0.002-0.002,0.003-0.003l192.328-192.336
	c3.123-3.124,3.123-8.188,0-11.312L418.6,192.344z M33.936,463.872L22.624,452.56l79.2-79.2l11.32,11.312L33.936,463.872z
	 M152.728,390.336c-3.164,3.025-8.148,3.025-11.312,0l-5.656-5.656l-39.6-39.592c-3.126-3.122-3.129-8.188-0.006-11.314
	c0.002-0.002,0.004-0.004,0.006-0.006l16.968-16.968l56.568,56.568L152.728,390.336z M362.032,22.64l101.824,101.816l-56.56,56.576
	L305.464,79.2L362.032,22.64z M226.272,396c-3.122,3.126-8.188,3.129-11.314,0.006c-0.002-0.002-0.004-0.004-0.006-0.006
	L90.496,271.544c-3.126-3.122-3.129-8.188-0.006-11.314c0.002-0.002,0.004-0.004,0.006-0.006L277.184,73.552l135.76,135.768
	L226.272,396z"/>
<g>
	
		<linearGradient id="SVGID_2_" gradientUnits="userSpaceOnUse" x1="-11.544" y1="561.225" x2="-11.544" y2="624.225" gradientTransform="matrix(8 0 0 -8 448.7279 4991.3999)">
		<stop  offset="0" style="stop-color:#006DF0"/>
		<stop  offset="1" style="stop-color:#00E7F0"/>
	</linearGradient>
	<path style="fill:url(#SVGID_2_);" d="M356.376,39.608l-33.944,33.944l33.944,33.936l33.944-33.936L356.376,39.608z
		 M345.064,73.552l11.312-11.32l11.32,11.32l-11.32,11.312L345.064,73.552z"/>
	
		<linearGradient id="SVGID_3_" gradientUnits="userSpaceOnUse" x1="-4.4725" y1="561.225" x2="-4.4725" y2="624.225" gradientTransform="matrix(8 0 0 -8 448.7279 4991.3999)">
		<stop  offset="0" style="stop-color:#006DF0"/>
		<stop  offset="1" style="stop-color:#00E7F0"/>
	</linearGradient>
	<path style="fill:url(#SVGID_3_);" d="M446.888,130.12l-33.944-33.944l-33.936,33.944l33.936,33.944L446.888,130.12z
		 M412.944,118.8l11.312,11.32l-11.312,11.312l-11.312-11.312L412.944,118.8z"/>
	
		<linearGradient id="SVGID_4_" gradientUnits="userSpaceOnUse" x1="-25.1801" y1="561.225" x2="-25.1801" y2="624.225" gradientTransform="matrix(8 0 0 -8 448.7279 4991.3999)">
		<stop  offset="0" style="stop-color:#006DF0"/>
		<stop  offset="1" style="stop-color:#00E7F0"/>
	</linearGradient>
	<path style="fill:url(#SVGID_4_);" d="M319.4,206.28l14.344-53.528l-53.536,14.344l13.944,13.936l-85.256,85.256V234.48
		l21.16-21.16c0.937,0.177,1.887,0.27,2.84,0.28c8.837,0.031,16.025-7.108,16.055-15.945s-7.108-16.025-15.945-16.055
		c-8.837-0.031-16.025,7.108-16.055,15.945c-0.006,1.825,0.3,3.637,0.905,5.359l-24.96,24.952v54.4l-11.92,11.92
		c-8.535-2.288-17.309,2.777-19.597,11.312c-2.288,8.535,2.777,17.309,11.312,19.597c8.535,2.288,17.309-2.777,19.597-11.312
		c0.727-2.714,0.727-5.571,0-8.285l27.92-27.888h56.08l23.28-23.272l5.896,5.896l22.632-22.624l-22.624-22.624l-22.64,22.624
		l5.416,5.416L269.696,261.6h-33.488l69.256-69.256L319.4,206.28z"/>
</g>
<g>
</g>
<g>
</g>
<g>
</g>
<g>
</g>
<g>
</g>
<g>
</g>
<g>
</g>
<g>
</g>
<g>
</g>
<g>
</g>
<g>
</g>
<g>
</g>
<g>
</g>
<g>
</g>
<g>
</g>
</svg>
