<?xml version="1.0" encoding="iso-8859-1"?>
<!-- Generator: Adobe Illustrator 19.0.0, SVG Export Plug-In . SVG Version: 6.00 Build 0)  -->
<svg version="1.1" id="Capa_1" xmlns="http://www.w3.org/2000/svg" xmlns:xlink="http://www.w3.org/1999/xlink" x="0px" y="0px"
	 viewBox="0 0 480.05 480.05" style="enable-background:new 0 0 480.05 480.05;" xml:space="preserve">
<linearGradient id="SVGID_1_" gradientUnits="userSpaceOnUse" x1="-26.8493" y1="554.6963" x2="-26.8493" y2="625.0143" gradientTransform="matrix(8 0 0 -8 454.8197 4941.4526)">
	<stop  offset="0" style="stop-color:#006DF0"/>
	<stop  offset="1" style="stop-color:#00E7F0"/>
</linearGradient>
<path style="fill:url(#SVGID_1_);" d="M381.434,234.626c-21.948-21.852-48.648-38.339-78.016-48.176
	c45.533-35.012,54.063-100.306,19.051-145.839S222.163-13.451,176.63,21.56s-54.063,100.306-19.051,145.839
	c5.511,7.167,11.933,13.585,19.103,19.091C94.861,213.382,39.68,289.924,40.026,376.05v64c0.026,22.08,17.92,39.974,40,40h320
	c22.08-0.026,39.974-17.92,40-40v-64C440.132,322.983,419.039,272.07,381.434,234.626z M152.026,104.05
	c0.004-48.601,39.407-87.996,88.008-87.992c48.601,0.004,87.996,39.407,87.992,88.008c-0.003,32.855-18.308,62.973-47.472,78.104
	c-3.02,1.571-6.132,2.958-9.32,4.152c-0.456,0.176-0.928,0.304-1.384,0.472c-2.667,0.949-5.355,1.771-8.064,2.464
	c-0.704,0.176-1.408,0.336-2.112,0.496c-2.624,0.592-5.264,1.064-7.92,1.416c-0.624,0.08-1.248,0.184-1.872,0.256
	c-6.551,0.724-13.161,0.724-19.712,0c-0.616-0.072-1.224-0.176-1.84-0.256c-2.667-0.352-5.333-0.827-8-1.424
	c-0.696-0.152-1.392-0.312-2.08-0.488c-2.744-0.691-5.451-1.518-8.112-2.48c-0.456-0.16-0.92-0.288-1.368-0.456
	c-3.194-1.203-6.315-2.595-9.344-4.168C170.233,167.064,151.935,136.912,152.026,104.05L152.026,104.05z M424.026,440.05
	c0,13.255-10.745,24-24,24h-320c-13.255,0-24-10.745-24-24v-64c-0.353-80.882,52.462-152.392,129.872-175.84
	c2.271-0.693,4.633-1.044,7.008-1.04c3.146,0.003,6.264,0.595,9.192,1.744c0.216,0.088,0.44,0.144,0.656,0.224
	c1.088,0.424,2.216,0.744,3.312,1.128c2.4,0.8,4.8,1.6,7.2,2.232c1.552,0.408,3.12,0.76,4.696,1.104
	c2.088,0.448,4.192,0.8,6.312,1.136c1.6,0.24,3.2,0.504,4.864,0.672c2.816,0.296,5.648,0.432,8.488,0.496c0.8,0,1.6,0.144,2.4,0.144
	c0.8,0,1.6-0.128,2.448-0.144c2.816-0.064,5.6-0.208,8.424-0.496c1.656-0.168,3.28-0.432,4.92-0.68
	c2.096-0.312,4.184-0.68,6.256-1.128c1.6-0.336,3.152-0.688,4.704-1.104c2.48-0.656,4.92-1.432,7.336-2.272
	c1.04-0.36,2.096-0.664,3.12-1.056c0.24-0.096,0.504-0.16,0.744-0.256c5.135-2.05,10.811-2.309,16.112-0.736
	c77.227,23.739,129.933,95.079,129.936,175.872L424.026,440.05z"/>
<g>
</g>
<g>
</g>
<g>
</g>
<g>
</g>
<g>
</g>
<g>
</g>
<g>
</g>
<g>
</g>
<g>
</g>
<g>
</g>
<g>
</g>
<g>
</g>
<g>
</g>
<g>
</g>
<g>
</g>
</svg>
