<?xml version="1.0" encoding="iso-8859-1"?>
<!-- Generator: Adobe Illustrator 19.0.0, SVG Export Plug-In . SVG Version: 6.00 Build 0)  -->
<svg version="1.1" id="Capa_1" xmlns="http://www.w3.org/2000/svg" xmlns:xlink="http://www.w3.org/1999/xlink" x="0px" y="0px"
	 viewBox="0 0 423.296 423.296" style="enable-background:new 0 0 423.296 423.296;" xml:space="preserve">
<linearGradient id="SVGID_1_" gradientUnits="userSpaceOnUse" x1="-61.6442" y1="542.2369" x2="-61.6442" y2="598.7839" gradientTransform="matrix(8 0 0 -8 704.8014 4736.2939)">
	<stop  offset="0" style="stop-color:#00F06D"/>
	<stop  offset="1" style="stop-color:#00F0F7"/>
</linearGradient>
<path style="fill:url(#SVGID_1_);" d="M109.914,372.335c-2.122,0-4.156-0.844-5.656-2.344L2.442,268.167
	c-3.178-3.07-3.266-8.134-0.196-11.312c3.07-3.178,8.134-3.266,11.312-0.196c0.067,0.064,0.132,0.13,0.196,0.196l96.16,96.168
	L409.738,53.207c3.178-3.069,8.242-2.982,11.312,0.196c2.994,3.1,2.994,8.015,0,11.116L115.578,369.991
	C114.076,371.493,112.038,372.337,109.914,372.335L109.914,372.335z"/>
<g>
</g>
<g>
</g>
<g>
</g>
<g>
</g>
<g>
</g>
<g>
</g>
<g>
</g>
<g>
</g>
<g>
</g>
<g>
</g>
<g>
</g>
<g>
</g>
<g>
</g>
<g>
</g>
<g>
</g>
</svg>
