<?xml version="1.0" encoding="iso-8859-1"?>
<!-- Generator: Adobe Illustrator 19.0.0, SVG Export Plug-In . SVG Version: 6.00 Build 0)  -->
<svg version="1.1" id="Capa_1" xmlns="http://www.w3.org/2000/svg" xmlns:xlink="http://www.w3.org/1999/xlink" x="0px" y="0px"
	 viewBox="0 0 480 480" style="enable-background:new 0 0 480 480;" xml:space="preserve">
<g>
	
		<linearGradient id="SVGID_1_" gradientUnits="userSpaceOnUse" x1="-26.875" y1="556.651" x2="-26.875" y2="617.153" gradientTransform="matrix(8 0 0 -8 455 4941)">
		<stop  offset="0" style="stop-color:#FB0000"/>
		<stop  offset="1" style="stop-color:#F0BD00"/>
	</linearGradient>
	<path style="fill:url(#SVGID_1_);" d="M240,0C107.452,0,0,107.452,0,240s107.452,240,240,240s240-107.452,240-240
		C479.85,107.514,372.486,0.15,240,0z M240,464C116.288,464,16,363.712,16,240S116.288,16,240,16s224,100.288,224,224
		C463.859,363.653,363.653,463.859,240,464z"/>
	
		<linearGradient id="SVGID_2_" gradientUnits="userSpaceOnUse" x1="-26.8812" y1="556.651" x2="-26.8812" y2="617.153" gradientTransform="matrix(8 0 0 -8 455 4941)">
		<stop  offset="0" style="stop-color:#FB0000"/>
		<stop  offset="1" style="stop-color:#F0BD00"/>
	</linearGradient>
	<path style="fill:url(#SVGID_2_);" d="M341.656,138.344c-3.124-3.123-8.188-3.123-11.312,0L240,228.688l-90.344-90.344
		c-3.178-3.069-8.243-2.981-11.312,0.197c-2.994,3.1-2.994,8.015,0,11.115L228.688,240l-90.344,90.344
		c-3.178,3.069-3.266,8.134-0.196,11.312c3.069,3.178,8.134,3.266,11.312,0.196c0.067-0.064,0.132-0.13,0.196-0.196L240,251.312
		l90.344,90.344c3.178,3.07,8.242,2.982,11.312-0.196c2.995-3.1,2.995-8.016,0-11.116L251.312,240l90.344-90.344
		C344.779,146.532,344.779,141.468,341.656,138.344L341.656,138.344z"/>
</g>
<g>
</g>
<g>
</g>
<g>
</g>
<g>
</g>
<g>
</g>
<g>
</g>
<g>
</g>
<g>
</g>
<g>
</g>
<g>
</g>
<g>
</g>
<g>
</g>
<g>
</g>
<g>
</g>
<g>
</g>
</svg>
