<?xml version="1.0" encoding="iso-8859-1"?>
<!-- Generator: Adobe Illustrator 19.0.0, SVG Export Plug-In . SVG Version: 6.00 Build 0)  -->
<svg version="1.1" id="Capa_1" xmlns="http://www.w3.org/2000/svg" xmlns:xlink="http://www.w3.org/1999/xlink" x="0px" y="0px"
	 viewBox="0 0 480.009 480.009" style="enable-background:new 0 0 480.009 480.009;" xml:space="preserve">
<g>
	
		<linearGradient id="SVGID_1_" gradientUnits="userSpaceOnUse" x1="-26.8712" y1="560.1618" x2="-26.8712" y2="623.6098" gradientTransform="matrix(8 0 0 -8 454.9739 4939.4414)">
		<stop  offset="0" style="stop-color:#FFA000"/>
		<stop  offset="1" style="stop-color:#FFFF00"/>
	</linearGradient>
	<path style="fill:url(#SVGID_1_);" d="M472.004,479.827h-464c-4.418,0.002-8.002-3.578-8.004-7.996
		c-0.001-1.243,0.288-2.468,0.844-3.58l232-464c2.358-3.954,7.475-5.249,11.429-2.891c1.189,0.709,2.182,1.702,2.891,2.891l232,464
		c1.975,3.952,0.372,8.757-3.58,10.732C474.472,479.539,473.246,479.827,472.004,479.827z M20.948,463.827H459.06L240.004,25.715
		L20.948,463.827z"/>
	
		<linearGradient id="SVGID_2_" gradientUnits="userSpaceOnUse" x1="-26.8713" y1="560.1618" x2="-26.8713" y2="623.6098" gradientTransform="matrix(8 0 0 -8 454.9739 4939.4414)">
		<stop  offset="0" style="stop-color:#FFA000"/>
		<stop  offset="1" style="stop-color:#FFFF00"/>
	</linearGradient>
	<path style="fill:url(#SVGID_2_);" d="M240.004,335.827c-4.418,0-8-3.582-8-8v-240c0-4.418,3.582-8,8-8s8,3.582,8,8v240
		C248.004,332.245,244.422,335.827,240.004,335.827z"/>
	
		<linearGradient id="SVGID_3_" gradientUnits="userSpaceOnUse" x1="-26.8713" y1="560.1618" x2="-26.8713" y2="623.6098" gradientTransform="matrix(8 0 0 -8 454.9739 4939.4414)">
		<stop  offset="0" style="stop-color:#FFA000"/>
		<stop  offset="1" style="stop-color:#FFFF00"/>
	</linearGradient>
	<path style="fill:url(#SVGID_3_);" d="M240.004,431.827c-22.091,0-40-17.909-40-40s17.909-40,40-40s40,17.909,40,40
		C279.977,413.907,262.084,431.8,240.004,431.827z M240.004,367.827c-13.255,0-24,10.745-24,24s10.745,24,24,24
		c13.255,0,24-10.745,24-24S253.259,367.827,240.004,367.827z"/>
</g>
<g>
</g>
<g>
</g>
<g>
</g>
<g>
</g>
<g>
</g>
<g>
</g>
<g>
</g>
<g>
</g>
<g>
</g>
<g>
</g>
<g>
</g>
<g>
</g>
<g>
</g>
<g>
</g>
<g>
</g>
</svg>
